
<svg version="1.1" id="Layer_1" xmlns="http://www.w3.org/2000/svg" xmlns:xlink="http://www.w3.org/1999/xlink" x="0px" y="0px"
	 width="100%" viewBox="0 0 672 624" enable-background="new 0 0 672 624" xml:space="preserve">
<path fill="#216C80" opacity="1.000000" stroke="none" 
	d="
M229.726608,54.641289 
	C234.860107,50.343552 240.382965,49.566242 245.860718,52.361633 
	C251.449448,55.213661 254.270020,60.222214 254.269150,66.647629 
	C254.267120,81.814026 254.407837,96.982002 254.213211,112.145782 
	C254.159256,116.349831 255.224121,118.137886 259.764130,118.079727 
	C275.427734,117.879128 291.096619,117.925880 306.761353,118.086075 
	C310.804993,118.127419 311.887299,116.429459 311.862183,112.689941 
	C311.759186,97.358116 311.788910,82.024338 311.911285,66.692406 
	C312.006714,54.736790 320.616150,48.244453 331.448273,51.779434 
	C337.578857,53.780106 341.006927,59.104885 341.045502,67.154541 
	C341.115723,81.820328 341.044830,96.486732 341.061005,111.152847 
	C341.068481,117.906815 341.121185,117.983765 347.624573,118.001389 
	C362.290833,118.041122 376.959686,117.871956 391.622162,118.113106 
	C396.485016,118.193092 397.929382,116.425995 397.849792,111.705322 
	C397.599823,96.876518 397.688965,82.041046 397.739563,67.208481 
	C397.766235,59.388042 401.300110,53.765392 407.215668,51.718891 
	C417.594910,48.128159 427.030151,54.935886 427.203064,66.515976 
	C427.427002,81.512352 427.465942,96.518143 427.172913,111.511833 
	C427.075470,116.497482 428.458618,118.255135 433.596375,118.134804 
	C446.588806,117.830505 459.599304,117.799171 472.591858,118.108322 
	C496.997742,118.689049 515.276428,129.398758 526.101379,151.687119 
	C529.716309,159.130188 531.016296,167.224808 531.119263,175.404556 
	C531.314514,190.901428 531.313477,206.405182 531.060120,221.900604 
	C530.984619,226.521957 532.459167,227.995895 537.048035,227.837860 
	C546.037109,227.528336 555.045227,227.688614 564.044006,227.785843 
	C567.057739,227.818390 569.277039,227.057129 571.395203,224.594284 
	C578.796570,215.988922 589.379272,213.696838 600.454407,217.855957 
	C609.365479,221.202377 616.085632,230.705124 616.272888,240.224426 
	C616.514771,252.520859 610.853638,262.034363 600.717224,266.365448 
	C588.897583,271.415741 578.755493,268.919708 570.599243,258.796082 
	C569.060242,256.885834 567.292725,256.304321 564.968994,256.320129 
	C555.302917,256.385986 545.634033,256.460327 535.970764,256.282959 
	C532.261169,256.214905 531.003967,257.547180 531.091736,261.241211 
	C531.301453,270.069397 531.121643,278.906189 531.202759,287.738525 
	C531.226196,290.294647 530.846069,292.747772 529.863831,295.053497 
	C527.597351,300.373993 521.923889,303.092560 517.692200,300.151886 
	C510.295074,295.011414 503.889099,288.635651 498.849854,281.102539 
	C497.091644,278.474243 496.754486,275.272064 496.765045,271.996582 
	C496.865112,240.997391 496.255676,209.981506 497.113525,179.005402 
	C497.532959,163.860199 484.017365,152.188934 470.257141,152.370972 
	C375.100647,153.629944 279.938690,152.752228 184.779037,152.815567 
	C178.206619,152.819946 171.795670,152.834549 166.105576,156.547394 
	C157.290482,162.299332 154.269012,170.892090 154.273132,181.008102 
	C154.288727,219.340332 154.211121,257.672607 154.209518,296.004852 
	C154.207336,347.670105 154.223862,399.335388 154.293610,451.000580 
	C154.300339,455.989258 154.898590,460.975861 154.944824,465.966034 
	C155.059708,478.368958 166.908630,487.507568 178.152145,487.614197 
	C201.983002,487.840210 225.819992,487.898193 249.648926,487.593109 
	C258.036591,487.485718 264.593079,490.288116 269.686615,496.692932 
	C275.904816,504.511932 281.962097,512.458740 288.108917,520.334656 
	C290.137238,522.933533 291.086273,525.863403 291.137177,529.142334 
	C291.211365,533.924866 290.011658,538.200867 285.622803,540.699524 
	C281.138794,543.252441 276.365997,543.230530 271.816833,540.777344 
	C265.491760,537.366516 261.228424,531.687622 256.862701,526.261230 
	C254.008148,522.713135 250.928406,521.143188 246.248871,521.179077 
	C223.085052,521.357117 199.918442,521.213074 176.753021,521.129333 
	C153.011765,521.043579 136.322495,509.653717 125.871025,488.782593 
	C122.188278,481.428314 120.711693,473.409180 120.717140,465.127838 
	C120.739830,430.628418 120.707855,396.128998 120.688622,361.629578 
	C120.684891,354.934357 120.669952,354.963898 114.072304,354.988770 
	C105.572853,355.020813 97.067184,355.189178 88.576210,354.919952 
	C84.434151,354.788666 81.382126,355.764801 78.628334,359.097198 
	C72.229294,366.840820 63.805939,368.999634 54.315273,366.180359 
	C45.255718,363.489166 39.053345,357.583710 36.372879,348.348236 
	C33.137070,337.199402 38.053421,324.042267 47.390759,318.672241 
	C58.538223,312.261230 70.269936,313.776093 79.137917,323.295837 
	C82.165321,326.545746 85.255905,327.807373 89.612061,327.649445 
	C98.255638,327.336121 106.917938,327.429138 115.570503,327.528229 
	C119.066612,327.568237 120.756088,326.469879 120.737610,322.663513 
	C120.637253,301.997742 120.655937,281.331024 120.740433,260.665039 
	C120.753922,257.366028 119.360001,256.289856 116.229408,256.323334 
	C106.564003,256.426788 96.896629,256.404175 87.230522,256.346527 
	C84.513496,256.330322 82.572906,257.337646 80.793816,259.434479 
	C73.457504,268.081146 61.742672,271.317688 51.984818,267.598755 
	C41.453503,263.585052 35.275803,254.070572 35.485275,242.187271 
	C35.698620,230.084061 40.903965,221.673782 50.466290,217.982422 
	C62.195614,213.454544 72.397667,215.820160 80.673668,225.247330 
	C82.289726,227.088181 83.967125,227.774155 86.281952,227.763229 
	C95.948189,227.717651 105.617874,227.619141 115.279892,227.831345 
	C119.427765,227.922424 120.809906,226.384216 120.768852,222.283630 
	C120.617027,207.118927 120.713783,191.951447 120.762070,176.785141 
	C120.850060,149.150162 137.828888,127.093056 164.665146,120.242767 
	C171.901520,118.395584 179.422653,117.967659 186.943436,118.041344 
	C196.775330,118.137665 206.609314,117.992577 216.442383,118.000702 
	C224.631073,118.007469 224.688141,117.997963 224.695160,109.565254 
	C224.706802,95.565643 224.773529,81.565323 224.649292,67.566788 
	C224.605469,62.629276 225.910370,58.388203 229.726608,54.641289 
z"/>
<!-- T -->
<path fill="#F2C94C" opacity="1.000000" stroke="none" 
	d="
M450.216614,252.886322 
	C437.309265,253.138657 424.819763,253.324539 412.329681,253.375122 
	C399.997864,253.425064 387.665131,253.264435 375.333527,253.332474 
	C363.456238,253.397995 358.285858,258.621490 358.281525,270.462402 
	C358.262268,323.290771 358.281403,376.119141 358.269379,428.947510 
	C358.267181,438.531250 354.115967,443.452942 344.553314,444.468811 
	C332.266205,445.774139 319.906036,445.168884 307.608978,444.658661 
	C298.503967,444.280884 293.779388,437.996033 293.773621,427.829132 
	C293.753448,392.332825 293.781647,356.836487 293.781097,321.340179 
	C293.780823,303.841949 293.798035,286.343536 293.729858,268.845520 
	C293.690582,258.764618 288.428040,253.466339 278.273254,253.426331 
	C255.275909,253.335739 232.278061,253.349258 209.280441,253.361969 
	C196.959335,253.368774 191.559433,248.024948 191.616287,235.788071 
	C191.661179,226.123428 191.642380,216.458405 191.706070,206.793915 
	C191.781052,195.413452 197.296234,189.954605 208.659210,189.957703 
	C284.651093,189.978424 360.643005,190.003723 436.634888,190.025650 
	C440.299988,190.026703 443.975159,189.832031 447.628174,190.037964 
	C455.652435,190.490341 460.955048,195.912003 461.057648,203.895569 
	C461.207550,215.558868 461.244324,227.225769 461.138275,238.889404 
	C461.068909,246.519501 458.049683,250.292557 450.216614,252.886322 
z"/>
<path fill="#216c80" opacity="1.000000" stroke="none" 
	d="
M528.157471,395.914520 
	C530.835449,399.486420 531.054321,403.348724 531.170410,407.161743 
	C531.327576,412.322235 531.285156,417.491364 531.214600,422.655182 
	C531.179749,425.208099 531.815186,426.776154 534.805298,426.753418 
	C544.967896,426.676147 555.131531,426.698944 565.294556,426.750122 
	C568.447510,426.765991 569.871704,424.372650 571.705017,422.504425 
	C578.300293,415.783844 586.244080,412.007202 595.589905,414.223877 
	C606.282349,416.759949 613.334412,423.735596 615.822632,434.712952 
	C618.330139,445.775452 612.432739,458.206207 602.362549,463.411316 
	C592.247681,468.639465 578.744873,466.234589 571.359619,457.538605 
	C569.286011,455.097046 567.166809,454.168030 564.093262,454.211792 
	C555.098022,454.339935 546.092590,454.470428 537.105652,454.168182 
	C532.555054,454.015076 530.963257,455.391235 531.146484,460.074982 
	C531.636475,472.602631 529.484131,484.635529 522.312012,495.248962 
	C510.621246,512.549316 494.218658,521.138916 473.347473,521.160767 
	C433.861298,521.202148 394.375153,521.224976 354.888977,521.247803 
	C347.245789,521.252258 347.136383,521.367615 347.131592,529.118042 
	C347.123505,542.113586 347.079590,555.109192 347.070801,568.104736 
	C347.069702,569.711975 346.733032,571.396729 347.599640,572.773804 
	C349.244446,573.230652 349.958740,572.090637 350.876923,571.476501 
	C356.971863,567.399597 361.062805,567.390198 365.295624,571.484436 
	C369.314453,575.371704 369.822479,581.784729 366.473877,587.067444 
	C364.223816,590.617065 361.157501,593.465820 358.186920,596.376282 
	C352.004944,602.433105 345.931244,608.616943 339.486359,614.383484 
	C334.581787,618.771851 328.274872,618.829590 323.651794,614.390137 
	C314.884247,605.970825 306.189911,597.434814 298.033325,588.432556 
	C291.636017,581.372009 293.780609,572.931885 301.937347,569.062378 
	C306.148376,567.064636 309.369812,569.283508 312.674103,570.996948 
	C314.698059,572.046570 316.361877,573.790710 318.207672,575.238770 
	C319.767944,574.186157 318.944031,572.729370 318.944885,571.551819 
	C318.958008,553.558228 318.842560,535.564575 318.869629,517.571045 
	C318.897003,499.372559 330.545135,487.743347 348.855530,487.716095 
	C389.842194,487.655090 430.829010,487.703583 471.815765,487.673828 
	C487.100311,487.662720 496.780212,477.985168 496.803589,462.794403 
	C496.821503,451.131592 497.345581,439.440002 496.706360,427.812836 
	C495.799347,411.315155 506.419342,402.472260 517.879639,394.129089 
	C521.118469,391.771210 524.902527,392.787689 528.157471,395.914520 
z"/>
<!-- arrow -->
<path fill="#348A81" opacity="1.000000" stroke="none" 
	d="
M569.877563,327.608154 
	C573.763306,327.406738 577.279419,328.099670 580.641785,326.623962 
	C576.768677,319.574554 577.176208,315.465271 581.980591,311.376709 
	C586.382324,307.630829 592.526184,307.916656 597.855774,312.459564 
	C605.716736,319.160217 612.601196,326.871521 619.658020,334.378082 
	C623.422974,338.382935 623.747437,344.396759 620.336426,348.603333 
	C613.413818,357.140594 605.757202,365.087250 597.139587,371.899750 
	C590.882874,376.845886 582.389221,375.014893 578.927246,368.844879 
	C576.246948,364.067932 578.484497,359.920105 580.875916,355.869324 
	C578.742432,354.420746 576.703308,355.054962 574.791138,355.052948 
	C546.480408,355.023193 518.169617,355.067352 489.858887,355.035858 
	C484.812561,355.030243 479.766083,354.769226 476.382904,350.096893 
	C472.752472,345.083191 472.969788,339.895874 475.675262,334.596588 
	C478.238281,329.576324 482.571716,327.630737 487.961792,327.625244 
	C506.946838,327.605988 525.931885,327.612457 544.916931,327.609802 
	C553.077209,327.608643 561.237427,327.609039 569.877563,327.608154 
z"/>
<path fill="#348a81" opacity="1.000000" stroke="none" 
	d="
M398.350494,367.622772 
	C390.869965,360.297882 389.496674,354.497894 393.523651,348.018280 
	C398.183807,340.519867 406.650604,339.304108 412.951996,345.565643 
	C425.228699,357.764618 437.295990,370.174042 449.494202,382.452393 
	C452.894562,385.875092 456.486786,389.106354 459.926178,392.491333 
	C466.656097,399.114746 467.371887,405.863556 460.840424,412.605957 
	C445.089539,428.865601 429.013550,444.816376 412.826874,460.644409 
	C407.485229,465.867706 400.382538,465.774994 395.751495,461.351929 
	C390.156891,456.008514 389.482849,448.473297 394.906372,442.646118 
	C404.087952,432.781281 413.712219,423.328033 423.168457,413.719543 
	C425.270172,411.584015 427.325470,409.377075 429.617584,407.460724 
	C433.113556,404.537842 432.918732,402.070221 429.696594,398.920837 
	C419.221222,388.682007 408.946564,378.237823 398.350494,367.622772 
z"/>
<path fill="#348a81" opacity="1.000000" stroke="none" 
	d="
M249.907654,435.092834 
	C252.392685,437.585724 254.675980,439.782440 256.859344,442.074402 
	C261.829346,447.291656 261.619934,455.292603 256.431671,460.468475 
	C251.316757,465.571198 244.342117,465.860016 239.092316,460.662842 
	C223.347458,445.075684 207.682175,429.405518 192.173386,413.583923 
	C186.335968,407.628662 186.169525,399.759125 191.874680,393.816620 
	C207.214188,377.838837 222.669495,361.964813 238.394821,346.368195 
	C245.188919,339.629700 252.664932,340.145050 257.812195,346.731415 
	C261.427246,351.357239 261.433594,358.422394 257.431854,363.392731 
	C249.890152,372.759918 240.593933,380.454865 232.397018,389.207153 
	C229.097198,392.730560 225.707321,396.203308 222.067627,399.364258 
	C219.035400,401.997589 219.234695,404.013428 221.945679,406.717743 
	C231.263184,416.012390 240.433884,425.454193 249.907654,435.092834 
z"/>
</svg>